<svg xmlns="http://www.w3.org/2000/svg" viewBox="0 0 760 244" width="760" height="244" font-family="&#39;JetBrains Mono&#39;,&#39;Courier New&#39;,Courier,monospace">
  <defs>
    <clipPath id="screen"><rect x="2" y="2" width="756" height="240" rx="14"></rect></clipPath>
    <pattern id="grid" width="38" height="38" patternUnits="userSpaceOnUse">
      <path d="M38 0H0V38" fill="none" stroke="#2a3039" stroke-width="1" opacity="0.55"></path>
    </pattern>
    <pattern id="scan" width="3" height="3" patternUnits="userSpaceOnUse">
      <rect width="3" height="1.5" fill="#000000" opacity="0.16"></rect>
    </pattern>
    <radialGradient id="glow" cx="22%" cy="60%" r="60%">
      <stop offset="0" stop-color="#4ee98a" stop-opacity="0.18"></stop>
      <stop offset="100%" stop-color="#4ee98a" stop-opacity="0"></stop>
    </radialGradient>
    <filter id="phos" x="-20%" y="-20%" width="140%" height="140%">
      <feGaussianBlur stdDeviation="3.2" result="b"></feGaussianBlur>
      <feMerge><feMergeNode in="b"></feMergeNode><feMergeNode in="SourceGraphic"></feMergeNode></feMerge>
    </filter>
  </defs>

  <rect x="2" y="2" width="756" height="240" rx="14" fill="#0d0f13" stroke="#2a3039" stroke-width="2"></rect>
  <g clip-path="url(#screen)">
    <rect x="2" y="42" width="756" height="200" fill="url(#grid)"></rect>
    <rect x="2" y="42" width="756" height="200" fill="url(#glow)"></rect>
    <rect x="2" y="2" width="756" height="40" fill="#14171d"></rect>
  </g>
  <line x1="2" y1="42" x2="758" y2="42" stroke="#2a3039" stroke-width="1.5"></line>
  <circle cx="30" cy="22" r="6" fill="#ff6b6b"></circle>
  <circle cx="52" cy="22" r="6" fill="#f5c451"></circle>
  <circle cx="74" cy="22" r="6" fill="#4ee98a"></circle>
  <text x="380" y="27" text-anchor="middle" font-size="13" fill="#5d6675">ezequiel@niloo.dev — ~/portfolio</text>

  
  <text x="34" y="84" font-size="18" fill="#6bffa3">$ whoami<tspan fill="#4ee98a">_</tspan></text>
  
  <text x="32" y="170" font-size="86" font-weight="bold" letter-spacing="4" fill="#4ee98a" filter="url(#phos)">NILOO<tspan fill="#6bffa3">_</tspan></text>
  
  <text x="36" y="216" font-size="13" letter-spacing="6" fill="#9aa4b2">FULLSTACK SOFTWARE DEVELOPER</text>
  
  <text x="724" y="84" text-anchor="end" font-size="12" fill="#5d6675">5+ YRS</text>
  <text x="724" y="106" text-anchor="end" font-size="12" fill="#5d6675">17+ REPOS</text>
  <text x="724" y="216" text-anchor="end" font-size="12" letter-spacing="2" fill="#3c434f">SÃO PAULO · BR</text>

  <rect x="2" y="2" width="756" height="240" rx="14" fill="url(#scan)"></rect>
</svg>